<svg width="512" height="512" viewBox="0 0 512 512" fill="none" xmlns="http://www.w3.org/2000/svg">
  <defs>
    <linearGradient id="flameGradient" x1="256" y1="50" x2="256" y2="450" gradientUnits="userSpaceOnUse">
      <stop offset="0%" stop-color="#C084FC" />
      <stop offset="50%" stop-color="#DB2777" />
      <stop offset="100%" stop-color="#7C3AED" />
    </linearGradient>
    <filter id="glow" x="-20%" y="-20%" width="140%" height="140%">
      <feGaussianBlur stdDeviation="10" result="blur" />
      <feComposite in="SourceGraphic" in2="blur" operator="over" />
    </filter>
  </defs>
  
  <rect width="512" height="512" rx="128" fill="#0F172A" />
  
  <path d="M256 64C180 160 144 240 144 320C144 400 192 448 256 448C320 448 368 400 368 320C368 240 332 160 256 64Z" 
        fill="url(#flameGradient)" filter="url(#glow)" />
  
  <path d="M256 128C210 200 184 260 184 320C184 370 216 400 256 400C296 400 328 370 328 320C328 260 302 200 256 128Z" 
        fill="white" fill-opacity="0.2" />
        
  <circle cx="256" cy="320" r="40" fill="white" fill-opacity="0.1" />
  <path d="M236 320L256 290L276 320L256 350L236 320Z" fill="white" fill-opacity="0.4" />
</svg>
